<?xml version="1.0" standalone="no"?>
<!DOCTYPE svg PUBLIC "-//W3C//DTD SVG 20010904//EN"
 "http://www.w3.org/TR/2001/REC-SVG-20010904/DTD/svg10.dtd">
<svg version="1.0" xmlns="http://www.w3.org/2000/svg"
 width="632.000000pt" height="632.000000pt" viewBox="0 0 632.000000 632.000000"
 preserveAspectRatio="xMidYMid meet">

<g transform="translate(0.000000,632.000000) scale(0.100000,-0.100000)"
fill="#000000" stroke="none">
<path d="M3122 5270 c-59 -36 -63 -59 -60 -365 3 -259 4 -275 24 -302 11 -15
39 -34 61 -42 35 -13 46 -13 79 0 22 8 48 29 61 48 23 33 23 39 23 319 l0 284
-39 39 c-32 32 -46 39 -77 39 -22 0 -54 -9 -72 -20z"/>
<path d="M2426 5131 c-38 -25 -55 -57 -56 -102 0 -23 35 -123 96 -275 111
-276 130 -304 209 -304 37 0 52 6 80 33 62 56 59 72 -45 333 -50 126 -99 244
-108 263 -31 66 -117 91 -176 52z"/>
<path d="M3843 5130 c-40 -24 -37 -18 -149 -293 -54 -133 -94 -245 -94 -264 0
-101 107 -157 190 -100 29 19 45 52 137 277 57 140 103 266 103 280 0 35 -34
86 -69 105 -40 20 -79 19 -118 -5z"/>
<path d="M1833 4745 c-58 -25 -87 -98 -64 -157 11 -28 361 -397 393 -415 13
-7 42 -12 65 -13 82 0 143 87 113 160 -16 39 -371 412 -407 427 -37 16 -61 15
-100 -2z"/>
<path d="M4465 4746 c-30 -13 -379 -368 -402 -409 -27 -49 -8 -129 39 -161 13
-9 44 -16 73 -16 l50 -1 178 183 c98 101 190 197 203 215 47 60 26 156 -42
188 -39 18 -59 18 -99 1z"/>
<path d="M3002 4249 c-90 -15 -238 -69 -318 -115 -246 -140 -418 -365 -491
-642 -22 -83 -25 -118 -25 -247 0 -129 3 -164 25 -247 95 -359 351 -624 712
-735 84 -25 101 -27 275 -27 211 0 275 13 425 83 116 54 186 103 283 196 194
185 297 415 309 685 12 286 -80 535 -274 740 -134 141 -299 242 -478 290 -91
25 -349 36 -443 19z m48 -46 c0 -10 9 -33 21 -52 l20 -34 -41 -42 c-40 -41
-42 -41 -102 -39 -60 3 -63 4 -116 58 l-55 54 39 17 c53 22 173 54 207 54 19
1 27 -4 27 -16z m385 -2 c39 -11 89 -28 113 -38 l43 -18 -56 -55 c-53 -52 -57
-55 -110 -55 -52 -1 -56 1 -101 46 -45 46 -46 48 -30 70 9 13 16 34 16 46 0
29 29 30 125 4z m-622 -129 c53 -53 56 -60 51 -93 -4 -20 -1 -45 4 -56 9 -17
5 -26 -28 -58 l-38 -37 -39 17 -39 17 -2 126 c0 69 1 129 4 134 11 18 32 6 87
-50z m837 -88 l0 -134 -32 -14 c-32 -13 -34 -12 -73 25 -38 36 -40 42 -39 94
1 54 2 58 59 115 33 34 63 56 71 53 11 -4 14 -35 14 -139z m-301 0 c-4 -13 -6
-36 -3 -51 4 -23 -2 -35 -34 -66 l-38 -38 -37 16 -37 15 0 113 0 113 28 11
c25 9 31 6 79 -40 45 -43 50 -53 42 -73z m-658 2 c0 -58 0 -110 -1 -115 0 -5
-13 -16 -29 -24 -29 -14 -29 -14 -95 52 l-66 66 57 45 c64 51 125 91 131 86 2
-3 3 -52 3 -110z m477 -13 l3 -109 -37 -18 -37 -17 -41 40 c-38 37 -41 45 -38
83 3 36 13 52 54 95 41 42 55 50 72 44 19 -8 21 -17 24 -118z m672 9 l45 -41
-65 -65 c-61 -63 -65 -65 -87 -51 -12 8 -29 15 -38 15 -13 0 -15 20 -15 130
l0 131 58 -39 c31 -22 77 -58 102 -80z m-1294 -103 l62 -61 -17 -39 -16 -39
-122 0 c-68 0 -123 3 -123 6 0 14 138 194 149 194 3 0 33 -27 67 -61z m1455
-81 l40 -58 -125 0 -124 0 -7 27 c-5 23 2 35 57 90 l63 64 28 -33 c16 -18 46
-59 68 -90z m-965 51 l41 -40 -16 -35 -15 -34 -101 0 -101 0 -11 29 c-10 27
-8 32 31 69 31 31 51 42 81 45 22 2 42 4 45 5 2 1 23 -16 46 -39z m512 -77
l-12 -32 -111 0 -111 0 -11 29 c-10 27 -8 32 31 70 36 36 46 40 73 35 17 -3
39 -1 50 4 15 9 25 4 61 -31 40 -41 42 -43 30 -75z m-957 -101 l17 -39 -42
-41 c-38 -37 -45 -40 -72 -32 -17 5 -42 7 -55 4 -19 -3 -36 8 -83 56 -84 85
-79 91 86 91 l133 0 16 -39z m472 2 l17 -38 -41 -41 c-38 -39 -43 -41 -87 -37
-38 4 -55 13 -90 47 -41 40 -42 42 -30 74 l12 32 101 0 101 0 17 -37z m467 26
c0 -6 7 -27 17 -46 16 -34 16 -35 -15 -66 -29 -28 -37 -31 -97 -32 -64 0 -66
0 -107 42 l-42 43 17 35 17 35 105 0 c70 0 105 -4 105 -11z m535 -10 c10 -30
-99 -141 -130 -133 -11 3 -32 1 -45 -4 -22 -8 -31 -3 -71 36 -38 37 -45 50
-39 66 5 12 11 29 14 39 5 15 20 17 135 17 123 0 130 -1 136 -21z m-1681 -185
c-3 -18 -1 -42 6 -54 11 -20 7 -28 -41 -76 -47 -48 -55 -52 -69 -39 -9 8 -31
18 -48 21 -18 4 -32 10 -32 15 0 38 56 238 75 269 4 6 31 -15 61 -46 49 -51
54 -61 48 -90z m1740 39 c33 -107 44 -183 25 -183 -8 0 -27 -7 -43 -15 -29
-15 -30 -15 -72 26 -41 40 -43 45 -37 86 4 28 1 48 -7 58 -11 14 -6 24 40 70
30 30 57 52 61 47 4 -4 19 -44 33 -89z m-1280 38 c34 -35 37 -41 26 -61 -7
-13 -10 -40 -7 -60 4 -34 1 -42 -37 -78 -40 -39 -42 -39 -74 -25 l-33 14 2
107 2 107 31 16 c44 24 48 23 90 -20z m509 -86 c-3 -18 -1 -41 5 -51 9 -16 4
-26 -29 -60 l-40 -40 -44 20 -45 21 0 102 0 103 33 14 c31 13 33 13 79 -32 41
-39 46 -48 41 -77z m-689 105 c26 -9 26 -10 26 -123 l0 -113 -29 -11 c-27 -10
-32 -8 -74 36 -40 42 -44 50 -42 89 2 36 10 51 46 88 24 24 44 44 45 44 2 0
14 -4 28 -10z m481 -2 c24 -11 25 -14 25 -112 l0 -102 -32 -12 c-31 -11 -34
-10 -74 29 -35 35 -42 47 -42 82 -1 36 5 48 41 85 46 47 46 47 82 30z m658
-35 c35 -37 44 -52 37 -63 -6 -8 -8 -26 -5 -40 5 -20 -4 -34 -43 -73 -43 -42
-51 -47 -80 -41 l-32 7 0 111 0 112 33 17 c17 8 34 16 37 16 3 1 27 -20 53
-46z m-184 26 l32 -11 -3 -111 -3 -112 -28 -9 c-25 -9 -32 -6 -72 34 -35 34
-43 49 -38 65 4 11 6 33 5 50 -1 22 8 39 35 67 20 21 38 38 39 38 0 0 15 -5
33 -11z m-558 -274 c-11 -15 -21 -34 -21 -41 0 -11 -22 -14 -99 -14 l-100 0
-14 29 c-14 28 -14 30 27 70 35 34 49 41 81 41 22 0 47 5 55 10 11 7 25 0 54
-29 l39 -39 -22 -27z m-499 49 l46 -46 -16 -29 -17 -29 -127 0 c-153 0 -158 6
-75 87 42 42 60 53 92 56 22 2 43 4 46 5 3 1 26 -19 51 -44z m989 -75 l-16
-29 -104 2 -104 3 -10 28 c-8 26 -5 33 28 67 32 32 46 40 84 42 42 3 50 -1 92
-41 l47 -43 -17 -29z m376 106 c36 -1 50 -7 87 -44 39 -38 42 -45 32 -67 -11
-23 -14 -24 -131 -24 l-120 0 -16 28 c-16 27 -16 28 30 75 32 33 50 45 61 40
8 -4 34 -7 57 -8z m-1342 -202 c14 -33 14 -38 -2 -56 -48 -55 -65 -64 -112
-59 -39 3 -54 12 -98 56 -42 40 -51 56 -47 74 6 21 10 22 125 22 l119 0 15
-37z m451 10 c4 -16 14 -38 22 -51 14 -21 13 -25 -12 -50 -23 -25 -32 -28 -87
-26 -57 1 -64 4 -100 41 l-40 39 16 37 15 37 90 0 c89 0 90 0 96 -27z m504
-14 c11 -40 10 -43 -24 -78 -32 -33 -39 -36 -84 -33 -42 3 -55 10 -85 40 -35
36 -35 38 -24 75 l12 37 97 0 97 0 11 -41z m497 7 c10 -33 9 -36 -31 -74 -35
-34 -49 -40 -97 -45 -55 -5 -58 -4 -92 31 -35 36 -36 38 -24 80 l11 42 111 0
112 0 10 -34z m-1650 -167 c-7 -19 -8 -37 -2 -55 9 -25 5 -32 -45 -80 -30 -29
-58 -50 -61 -48 -10 6 -55 146 -67 206 -9 45 -8 47 16 53 14 3 37 15 51 26
l25 20 47 -47 c43 -43 46 -48 36 -75z m305 -45 c3 -112 3 -113 -21 -119 -20
-5 -34 3 -75 44 -47 46 -52 55 -51 95 0 39 6 51 39 85 l39 39 33 -15 33 -16 3
-113z m166 89 c19 -17 23 -28 18 -50 -4 -16 -2 -41 3 -55 8 -23 4 -30 -40 -74
l-49 -48 -36 17 -36 17 4 108 3 107 35 16 c38 18 32 20 98 -38z m474 20 c31
-30 35 -39 27 -56 -6 -10 -9 -33 -6 -51 4 -27 -2 -38 -45 -83 -47 -47 -52 -50
-79 -41 l-29 10 0 109 c0 100 2 109 19 109 10 0 29 9 42 20 13 10 26 19 29 20
2 0 21 -16 42 -37z m318 -114 c0 -102 -1 -107 -22 -113 -33 -8 -121 79 -115
113 3 14 1 36 -4 50 -8 21 -5 30 26 61 l37 37 39 -21 39 -21 0 -106z m188 22
c0 -42 -5 -51 -50 -98 -47 -47 -52 -50 -79 -41 l-29 10 0 109 c0 107 0 109 25
115 13 3 30 12 36 20 10 13 19 9 55 -27 38 -37 42 -46 42 -88z m256 114 c11
-8 30 -15 43 -15 22 0 23 -3 17 -37 -9 -54 -54 -196 -65 -208 -6 -6 -28 9 -58
39 -45 45 -48 50 -38 77 8 20 8 37 1 56 -10 25 -7 32 25 66 39 41 47 43 75 22z
m-960 -20 l36 -15 0 -104 0 -104 -27 -6 c-22 -6 -33 0 -68 34 -40 40 -43 45
-41 96 1 44 7 59 31 84 16 16 30 30 31 30 1 0 18 -7 38 -15z m-560 -214 l45
-44 -22 -28 -21 -29 -133 0 c-125 0 -133 1 -144 21 -6 12 -7 19 -2 16 5 -3 35
20 66 51 55 56 58 57 111 57 52 0 58 -3 100 -44z m473 -1 l43 -42 -21 -29
c-20 -29 -21 -29 -124 -29 -96 0 -105 2 -119 22 -15 21 -14 25 34 73 46 47 53
50 96 49 41 -1 53 -7 91 -44z m492 6 l39 -38 -22 -34 -21 -33 -111 -1 c-110 0
-112 0 -129 26 -17 26 -17 27 29 73 45 45 46 46 111 46 61 -1 67 -3 104 -39z
m479 -20 c80 -79 72 -86 -93 -86 -132 0 -133 0 -150 26 -17 26 -17 27 30 74
l48 48 56 -5 c51 -5 61 -10 109 -57z m-1438 -142 c0 -14 5 -35 11 -46 10 -18
4 -28 -48 -80 l-58 -59 -33 38 c-40 46 -122 158 -122 167 0 3 56 6 125 6 l125
0 0 -26z m470 5 c0 -11 5 -30 11 -41 9 -17 6 -25 -22 -54 -26 -27 -40 -33 -69
-32 -20 1 -41 -2 -47 -5 -5 -3 -28 13 -51 36 -38 38 -41 46 -35 80 l6 37 103
0 c98 0 104 -1 104 -21z m480 0 c0 -11 5 -30 11 -41 9 -17 5 -26 -26 -58 -31
-32 -41 -37 -64 -30 -14 4 -36 4 -47 -1 -17 -6 -29 1 -61 34 -36 37 -40 46
-36 80 l5 37 109 0 c103 0 109 -1 109 -21z m471 -36 c-22 -32 -53 -74 -69 -93
l-31 -35 -59 59 c-54 53 -59 61 -52 86 5 16 6 31 2 34 -3 3 52 6 122 6 l127 0
-40 -57z m-1126 -168 c0 -53 -2 -57 -59 -114 -48 -48 -63 -58 -77 -50 -15 8
-18 24 -17 115 0 115 3 134 23 134 7 0 23 9 36 19 l24 20 36 -35 c32 -32 35
-39 34 -89z m445 84 c33 -35 38 -45 29 -61 -7 -13 -7 -29 -1 -47 9 -26 6 -33
-46 -84 -49 -47 -60 -54 -79 -46 -22 8 -23 13 -23 124 0 91 3 115 14 115 8 0
24 9 37 20 13 10 25 19 27 20 1 0 20 -19 42 -41z m508 -12 l52 -53 -32 -30
c-36 -33 -97 -80 -140 -107 l-28 -17 0 107 1 108 42 22 c23 12 44 22 47 22 3
1 29 -23 58 -52z m-1136 -95 c2 -57 0 -106 -4 -108 -7 -5 -99 57 -148 99 l-33
28 57 58 57 58 34 -16 33 -16 4 -103z m422 123 c11 -8 28 -15 38 -15 16 0 18
-11 18 -114 0 -143 -9 -151 -87 -74 -48 47 -52 56 -47 84 3 18 1 41 -4 51 -9
14 -5 24 21 51 35 37 35 36 61 17z m471 6 c3 -5 19 -12 35 -16 l30 -7 0 -118
c0 -149 -8 -156 -89 -76 -54 54 -56 57 -56 110 0 47 4 59 29 85 31 33 41 37
51 22z m-530 -231 l44 -43 -18 -26 c-10 -14 -21 -34 -25 -45 -5 -16 -13 -18
-59 -12 -47 7 -195 51 -206 62 -3 2 19 28 47 57 52 53 52 53 113 51 57 -1 63
-4 104 -44z m476 -4 c27 -26 47 -51 44 -56 -8 -13 -161 -60 -217 -67 -37 -4
-48 -3 -48 8 0 8 -9 25 -20 39 l-19 25 49 50 c48 49 51 50 105 49 53 -1 59 -3
106 -48z"/>
<path d="M1426 4201 c-39 -26 -55 -57 -56 -108 0 -71 27 -92 279 -215 124 -60
238 -114 253 -118 40 -12 93 6 123 42 24 28 27 39 23 84 -3 29 -11 60 -19 70
-24 29 -507 264 -542 264 -18 0 -45 -9 -61 -19z"/>
<path d="M4630 4097 c-203 -101 -249 -128 -267 -156 -43 -64 -19 -141 54 -173
57 -25 60 -24 346 119 243 121 267 140 267 209 0 37 -36 94 -70 111 -49 25
-83 14 -330 -110z"/>
<path d="M1390 3471 c-155 -6 -175 -12 -204 -62 -37 -63 -9 -146 59 -175 50
-20 554 -7 597 16 88 47 82 178 -9 216 -34 15 -150 16 -443 5z"/>
<path d="M4550 3458 c-79 -54 -81 -151 -3 -204 29 -19 48 -21 303 -27 296 -7
322 -4 355 47 27 40 29 96 6 133 -36 57 -50 60 -351 68 l-275 7 -35 -24z"/>
<path d="M1582 2821 c-281 -98 -301 -109 -309 -182 -6 -58 26 -108 83 -128 40
-14 44 -13 302 74 235 78 265 91 292 122 54 61 35 149 -40 188 -16 8 -39 15
-52 14 -13 0 -137 -40 -276 -88z"/>
<path d="M4480 2892 c-46 -25 -74 -81 -65 -129 12 -67 39 -82 317 -177 286
-98 307 -101 358 -46 47 51 48 119 1 168 -21 23 -79 46 -286 115 -143 48 -267
87 -275 87 -8 0 -31 -8 -50 -18z"/>
<path d="M1674 2354 c-61 -30 -82 -105 -65 -230 22 -158 119 -293 249 -346 56
-23 64 -23 480 -26 396 -3 423 -4 415 -20 -4 -9 -9 -186 -11 -393 -3 -370 -2
-376 19 -402 52 -68 135 -72 189 -11 l30 35 0 169 c0 140 3 171 16 184 13 13
44 16 178 16 113 0 166 -4 174 -12 8 -8 12 -62 12 -179 0 -156 1 -168 23 -200
13 -19 39 -40 61 -48 33 -13 44 -13 79 0 22 8 50 27 61 42 20 28 21 39 21 380
0 194 -4 371 -8 395 l-9 42 399 0 c419 0 452 3 538 48 136 70 223 242 213 422
-4 83 -26 118 -85 139 -48 17 -83 10 -125 -28 -30 -27 -32 -32 -38 -123 -7
-115 -29 -162 -86 -192 -38 -20 -56 -21 -512 -24 l-473 -3 -62 25 c-130 52
-246 52 -368 1 l-58 -25 -448 0 c-246 1 -468 5 -492 9 -90 18 -130 75 -137
198 -6 93 -25 136 -69 157 -41 20 -71 20 -111 0z m1546 -555 c69 -16 116 -53
150 -122 35 -70 41 -157 14 -195 -15 -21 -20 -22 -209 -22 l-194 0 -20 26
c-54 69 6 241 102 291 29 15 77 30 102 32 6 0 30 -4 55 -10z"/>
</g>
</svg>
