<?xml version="1.0" standalone="no"?>
<!DOCTYPE svg PUBLIC "-//W3C//DTD SVG 20010904//EN"
 "http://www.w3.org/TR/2001/REC-SVG-20010904/DTD/svg10.dtd">
<svg version="1.0" xmlns="http://www.w3.org/2000/svg"
 width="720.000000pt" height="917.000000pt" viewBox="0 0 720.000000 917.000000"
 preserveAspectRatio="xMidYMid meet">

<g transform="translate(0.000000,917.000000) scale(0.100000,-0.100000)"
fill="#000000" stroke="none">
<path d="M3228 8023 c-38 -24 -53 -64 -39 -103 12 -37 -4 -73 -30 -65 -11 4
-23 -10 -41 -47 -38 -76 -37 -72 -43 -310 -5 -200 -4 -218 12 -227 16 -9 18
-27 15 -213 -3 -192 4 -326 15 -314 3 3 6 119 7 258 l0 253 82 3 81 3 5 -58
c3 -32 3 -119 0 -193 -5 -133 3 -250 16 -250 4 0 6 112 6 250 -2 242 -1 250
18 250 18 0 19 5 13 93 -3 50 -8 116 -11 146 -6 53 -5 54 14 40 83 -61 159
-109 173 -109 9 0 24 -9 34 -20 23 -25 50 -26 68 0 8 11 16 17 19 14 3 -3 50
12 104 32 67 25 108 46 125 66 l27 30 1 -99 c1 -149 12 -253 25 -253 9 0 17
-67 29 -222 9 -122 19 -224 22 -226 14 -15 14 22 -1 204 -8 109 -14 218 -11
242 4 37 2 42 -13 37 -15 -5 -19 3 -24 49 -4 30 -7 129 -7 220 0 104 -3 164
-9 161 -6 -4 -10 -12 -10 -20 0 -7 -5 -15 -11 -17 -9 -3 -8 -9 1 -24 11 -18 8
-25 -21 -56 -43 -46 -196 -109 -210 -87 -14 23 -6 31 56 58 41 18 60 22 63 13
5 -17 22 -15 22 3 0 8 7 15 15 15 17 0 20 17 4 22 -10 3 67 138 96 167 13 14
15 13 15 -1 0 -9 5 -18 10 -20 15 -5 39 -187 40 -299 0 -92 16 -209 29 -209 3
1 17 7 30 14 28 15 71 9 71 -10 0 -8 -7 -14 -15 -14 -10 0 -15 -10 -15 -29 0
-25 -4 -30 -27 -33 -23 -2 -28 -7 -26 -28 2 -14 6 -96 9 -183 7 -156 22 -222
26 -110 l2 58 3 -52 c2 -30 9 -53 15 -53 12 0 6 129 -7 163 -6 14 -1 17 27 17
l35 0 7 -86 c7 -89 11 -108 26 -99 4 3 4 22 -1 42 -5 21 -9 64 -9 95 l0 57 58
3 57 3 -1 80 c0 102 -5 115 -43 115 -22 0 -29 4 -25 14 3 8 -4 21 -16 29 -14
9 -21 24 -19 39 1 12 -1 48 -4 78 -4 30 -11 123 -17 205 -5 83 -14 166 -21
185 -15 41 -78 119 -98 120 -10 0 -11 9 -5 38 13 62 8 92 -18 119 -34 33 -94
35 -120 3 -26 -33 -25 -133 2 -160 11 -11 25 -20 30 -20 17 0 11 -30 -11 -48
-11 -9 -38 -47 -60 -84 -57 -97 -75 -114 -158 -148 -81 -33 -131 -39 -131 -16
0 8 -40 41 -89 73 -49 32 -92 65 -95 74 -4 9 -22 42 -41 74 -40 65 -45 95 -15
95 29 0 38 26 32 99 -7 101 -54 137 -124 94z m86 -19 c10 -9 17 -35 18 -65 1
-27 2 -57 2 -66 1 -24 -48 -35 -81 -18 -24 13 -52 68 -53 103 0 20 51 62 76
62 12 0 30 -7 38 -16z m672 -22 c29 -19 35 -51 20 -103 -9 -28 -13 -55 -11
-60 3 -4 -6 -19 -20 -33 -25 -25 -25 -25 -25 -3 0 26 -8 38 -35 53 -16 9 -21
23 -23 68 -2 34 2 64 9 72 12 15 66 19 85 6z m-726 -158 c0 -5 -61 5 -69 12
-1 1 0 7 4 13 6 11 65 -12 65 -25z m-41 -21 c2 -2 -8 -12 -22 -24 -15 -11 -27
-28 -27 -37 0 -12 6 -10 28 10 60 57 89 41 146 -80 18 -37 36 -62 45 -62 19 0
151 -87 151 -99 0 -5 -8 -19 -18 -31 l-19 -23 -57 38 c-32 21 -92 67 -134 101
-86 72 -122 86 -50 20 l47 -44 10 -143 c6 -78 9 -144 8 -145 -8 -8 -219 -6
-227 2 -6 6 -6 96 -1 234 7 206 10 229 31 271 l23 46 31 -16 c17 -9 33 -17 35
-18z m854 -41 c29 -39 39 -62 47 -118 9 -65 32 -376 27 -380 -1 0 -14 -4 -28
-7 l-26 -7 -6 98 c-7 112 -34 273 -48 287 -13 13 -12 -5 6 -105 8 -47 16 -125
17 -174 3 -81 1 -89 -19 -103 -21 -14 -22 -13 -32 24 -6 21 -11 83 -11 139 0
55 -7 145 -15 200 -8 54 -15 107 -15 116 0 16 48 77 60 78 3 0 22 -22 43 -48z
m-471 -306 c16 -23 6 -30 -12 -8 -16 20 -23 21 -40 12 -20 -11 -21 -10 -10 9
9 18 14 20 33 10 12 -7 25 -17 29 -23z m32 8 c3 -8 2 -12 -4 -9 -6 3 -10 10
-10 16 0 14 7 11 14 -7z m-60 -30 c3 -8 2 -12 -4 -9 -6 3 -10 10 -10 16 0 14
7 11 14 -7z m576 -203 c0 -17 -18 -21 -24 -6 -3 9 0 15 9 15 8 0 15 -4 15 -9z
m30 -61 c0 -17 -7 -20 -40 -20 -29 0 -40 4 -40 15 0 8 5 15 10 15 6 0 10 -4
10 -10 0 -16 40 -12 46 5 8 21 14 19 14 -5z m70 -32 c1 -2 3 -38 7 -80 l5 -78
-39 0 c-22 0 -67 -3 -101 -6 l-60 -7 -7 49 c-3 27 -8 61 -10 76 -4 26 -3 26
68 36 73 10 137 14 137 10z"/>
<path d="M3165 7079 c7 -169 25 -330 38 -322 5 3 6 22 3 42 -3 20 -10 116 -15
214 -5 105 -13 183 -19 189 -9 9 -10 -25 -7 -123z"/>
<path d="M2526 6349 c-14 -17 -26 -41 -26 -54 0 -26 -11 -36 -60 -55 -44 -17
-77 -46 -97 -85 -14 -27 -12 -27 17 8 18 21 49 46 69 57 l38 19 -4 -23 c-3
-13 2 -37 11 -54 18 -36 23 -107 5 -82 -8 11 -9 8 -5 -15 3 -16 10 -59 16 -95
6 -36 18 -89 26 -118 12 -43 13 -57 3 -69 -11 -12 -16 -8 -36 30 -12 25 -31
86 -42 136 -21 96 -27 111 -41 111 -4 0 -2 -21 6 -47 19 -61 18 -83 -6 -150
-11 -32 -20 -68 -20 -80 0 -13 -2 -23 -3 -23 -5 0 -109 36 -130 45 -16 7 -17
4 -11 -21 8 -35 14 -43 14 -20 0 19 26 15 98 -16 53 -22 49 -22 55 4 13 49 17
5 7 -83 -6 -52 -13 -173 -16 -270 -6 -170 -7 -176 -26 -171 -11 2 -22 10 -24
17 -3 6 4 101 16 211 23 227 24 242 11 228 -8 -7 -51 -384 -51 -441 0 -9 -15
-13 -51 -13 -51 0 -51 0 -45 28 3 15 8 124 12 242 4 170 3 211 -7 196 -8 -13
-10 -49 -6 -115 3 -53 2 -127 -3 -166 -5 -38 -10 -102 -11 -142 -3 -70 -4 -71
-32 -77 -16 -3 -44 -6 -62 -6 -21 0 -35 -6 -39 -16 -10 -27 -7 -146 4 -139 6
3 10 37 10 76 l0 69 170 0 170 0 0 -75 c0 -43 4 -75 10 -75 6 0 10 105 10 296
l0 296 24 28 c16 20 27 25 34 18 20 -20 42 0 42 39 0 31 10 50 51 101 28 34
55 62 60 62 5 0 9 -183 9 -421 0 -277 3 -418 10 -414 6 4 10 159 10 432 l0
426 98 -6 c53 -4 130 -7 170 -7 l72 0 0 -425 c0 -277 3 -425 10 -425 7 0 10
152 10 435 l0 435 -30 0 c-23 0 -30 4 -30 20 0 20 -23 37 -75 56 -27 10 -68 6
-127 -12 -10 -3 -18 -1 -18 4 0 5 10 13 23 16 21 6 19 10 -32 57 -52 49 -83
59 -89 29 -1 -8 11 -23 28 -32 28 -16 30 -21 30 -73 0 -31 -4 -54 -9 -51 -33
21 -151 212 -151 245 0 6 9 11 20 11 30 0 60 56 60 113 0 89 -73 127 -124 66z
m86 -6 c21 -19 24 -85 5 -123 -9 -18 -21 -25 -42 -24 -19 0 -37 -8 -51 -25
l-22 -26 -11 28 c-15 39 -14 45 9 59 15 10 20 24 20 55 0 66 48 96 92 56z m42
-380 c35 -45 35 -62 0 -63 -10 0 -68 81 -114 159 l-15 26 -3 -35 c-2 -19 -8
-39 -13 -45 -16 -16 2 119 19 137 13 16 18 11 52 -58 21 -41 55 -96 74 -121z
m-68 -10 c20 -31 38 -61 40 -68 3 -6 -11 -29 -30 -50 -41 -46 -48 -42 -67 38
-12 50 -5 137 11 137 5 0 26 -26 46 -57z m363 -15 c42 -26 25 -38 -53 -38 -86
0 -106 6 -106 29 0 13 13 20 48 27 47 10 73 6 111 -18z m-526 -98 c-9 -22 -18
-38 -20 -36 -5 5 24 76 31 76 2 0 -3 -18 -11 -40z m18 -41 c-6 -24 -9 -28 -10
-12 -1 24 9 56 16 50 2 -3 0 -20 -6 -38z m49 -75 c0 -12 -13 -38 -30 -59 l-30
-38 0 -205 c0 -149 -3 -203 -11 -195 -8 8 -8 78 -1 246 8 189 13 240 26 259 9
12 16 34 17 48 1 25 1 25 14 -5 8 -16 14 -40 15 -51z m52 44 c-7 -7 -12 -30
-13 -52 l-1 -41 -9 34 c-8 27 -7 37 7 52 9 10 20 19 23 19 3 0 0 -5 -7 -12z
m-239 -565 c-13 -2 -35 -2 -50 0 -16 2 -5 4 22 4 28 0 40 -2 28 -4z m70 0 c-7
-2 -21 -2 -30 0 -10 3 -4 5 12 5 17 0 24 -2 18 -5z"/>
<path d="M4510 6186 c0 -2 11 -6 25 -8 13 -3 22 -1 19 3 -5 9 -44 13 -44 5z"/>
<path d="M4469 6148 c-7 -12 -13 -49 -13 -80 -1 -49 -4 -57 -17 -52 -10 2 -48
-1 -85 -7 -38 -6 -99 -17 -136 -23 -63 -10 -70 -15 -140 -81 -41 -38 -83 -75
-94 -81 -10 -6 -21 -22 -22 -35 -2 -13 -17 -39 -32 -59 -26 -32 -26 -37 -13
-57 l15 -23 -61 0 -61 0 0 -119 0 -120 -52 -3 -53 -3 3 -35 c2 -19 6 -106 8
-192 3 -90 9 -158 14 -158 14 0 13 317 0 325 -5 3 -10 15 -10 26 0 18 10 19
283 19 l282 0 -4 -186 c-2 -127 0 -189 8 -197 8 -8 11 29 11 138 0 83 3 174 7
203 5 48 4 54 -15 59 -20 5 -22 13 -24 122 l-3 116 -92 3 c-85 3 -110 11 -83
27 18 11 11 38 -17 67 l-26 27 25 10 c14 5 41 23 59 38 61 52 86 63 142 63 75
0 84 -12 68 -98 -6 -37 -21 -100 -33 -140 -20 -70 -20 -73 -3 -92 10 -11 35
-23 55 -26 l37 -6 7 -67 c3 -36 6 -148 6 -248 0 -130 3 -183 11 -183 9 0 10
70 7 265 l-5 265 43 0 c41 0 43 -1 46 -32 3 -31 5 -33 44 -33 26 0 49 -7 62
-18 18 -16 20 -16 26 -2 3 9 6 24 6 33 0 14 -2 14 -9 3 -8 -12 -12 -12 -29 1
-20 14 -20 14 13 89 39 88 42 105 27 139 -10 23 -11 21 -11 -20 -1 -28 -12
-69 -31 -108 -17 -35 -30 -72 -30 -83 0 -13 -7 -19 -24 -19 -23 0 -24 3 -24
66 0 37 -5 71 -11 77 -8 8 -11 -1 -11 -31 l0 -42 -41 0 c-38 0 -41 2 -35 23 4
12 11 92 16 177 5 85 9 157 10 159 0 3 6 -3 14 -14 8 -11 21 -16 33 -13 18 5
19 2 13 -38 -4 -24 -4 -48 0 -55 4 -6 11 10 14 35 4 25 15 68 24 95 l17 50 48
-35 c55 -40 72 -74 85 -165 l10 -64 1 55 c1 72 -23 123 -85 180 -27 25 -47 52
-45 60 2 11 -2 10 -18 -4 -12 -11 -21 -27 -21 -37 0 -18 -36 -59 -52 -59 -11
0 -27 42 -21 56 2 7 13 10 24 7 26 -7 24 10 -3 22 -27 12 -35 63 -19 122 12
44 8 54 -10 21z m-31 -156 c10 -7 10 -24 2 -78 -5 -38 -10 -107 -10 -154 0
-75 -4 -105 -25 -197 -7 -28 -43 -31 -75 -5 l-22 18 20 65 c11 35 26 99 33
141 12 72 12 79 -6 98 -17 19 -29 21 -87 18 -38 -2 -68 0 -68 5 0 4 -4 7 -10
7 -5 0 -10 -8 -10 -17 0 -10 -24 -34 -54 -55 -50 -35 -54 -36 -75 -22 -22 16
-21 16 44 77 62 58 71 63 138 75 40 7 92 16 117 21 61 12 73 12 88 3z m-403
-193 c11 -17 2 -18 -25 -4 -24 14 -24 14 -3 15 12 0 25 -5 28 -11z m31 -123
c-14 -22 -24 -26 -63 -26 -32 0 -50 5 -59 18 -19 24 -18 27 23 73 l36 40 40
-40 c40 -39 40 -40 23 -65z m184 -156 l0 -110 -210 0 -210 0 0 110 0 110 210
0 210 0 0 -110z"/>
<path d="M2413 6149 c-13 -5 -23 -13 -23 -19 0 -13 10 -12 39 4 28 16 16 27
-16 15z"/>
<path d="M4621 5838 c1 -13 5 -36 9 -53 7 -26 8 -22 9 23 0 29 -3 52 -9 52 -5
0 -9 -10 -9 -22z"/>
<path d="M4512 5730 c0 -19 2 -27 5 -17 2 9 2 25 0 35 -3 9 -5 1 -5 -18z"/>
<path d="M4691 5587 c-13 -21 -12 -21 5 -5 10 10 16 20 13 22 -3 3 -11 -5 -18
-17z"/>
<path d="M4485 5398 c19 -63 24 -116 25 -251 0 -96 4 -146 10 -142 6 3 11 43
11 88 l2 82 8 -84 c5 -47 11 -87 14 -89 15 -15 15 21 2 145 -16 140 -49 273
-69 273 -6 0 -8 -9 -3 -22z"/>
<path d="M4650 5325 c-5 -87 0 -307 6 -314 9 -10 10 14 4 199 -4 131 -8 169
-10 115z"/>
<path d="M3937 5342 l-187 -2 0 -160 c0 -100 4 -160 10 -160 6 0 10 57 10 150
0 93 4 150 10 150 6 0 10 -57 10 -150 0 -143 1 -150 20 -150 19 0 20 7 20 150
l0 150 195 0 195 0 0 -157 c0 -204 18 -194 23 12 l3 150 2 -157 c1 -97 6 -158
12 -158 6 0 10 62 10 165 0 164 0 165 -22 166 -13 0 -46 1 -74 2 -28 1 -135 1
-237 -1z"/>
<path d="M3356 4884 c-4 -9 0 -24 9 -34 13 -14 15 -76 15 -448 l0 -432 470 0
470 0 0 160 c0 184 -5 178 92 129 60 -30 62 -31 96 -15 19 9 37 14 40 11 6 -6
7 -6 -40 -32 l-36 -21 -33 24 c-35 26 -49 30 -49 14 0 -13 72 -79 87 -80 7 0
36 15 65 34 54 34 324 118 361 113 9 -2 32 -17 50 -33 17 -17 54 -48 81 -70
180 -144 242 -197 247 -212 4 -9 16 -80 28 -157 12 -77 24 -152 26 -167 2 -15
-2 -31 -10 -38 -8 -6 -11 -18 -9 -25 3 -7 -7 -46 -21 -87 -20 -53 -29 -99 -32
-169 l-6 -96 44 -18 c82 -34 332 -31 388 5 33 20 -42 343 -92 398 -10 10 -30
59 -46 108 -44 138 -80 232 -117 314 -28 61 -45 84 -88 117 -68 54 -314 269
-346 304 l-25 27 -190 -63 c-173 -57 -192 -62 -216 -50 -14 8 -31 21 -38 29
-19 23 -29 20 -93 -25 -49 -34 -63 -39 -89 -34 l-30 7 2 261 2 262 -480 3
c-440 2 -481 1 -487 -14z m954 -14 c0 -7 -163 -10 -470 -10 -307 0 -470 3
-470 10 0 7 163 10 470 10 307 0 470 -3 470 -10z m-10 -264 l0 -233 -39 -7
c-22 -3 -46 -3 -55 0 -8 3 -23 1 -33 -4 -15 -9 -8 -14 41 -36 32 -14 65 -26
72 -26 11 0 14 -30 14 -155 l0 -155 -450 0 -450 0 0 425 0 425 450 0 450 0 0
-234z m613 -206 c-15 -40 -32 -74 -38 -75 -214 -62 -269 -74 -277 -63 -10 16
-10 79 0 94 7 10 334 124 340 118 2 -1 -9 -35 -25 -74z m38 4 c-12 -26 -24
-45 -27 -42 -3 4 5 30 17 59 13 29 25 47 27 41 2 -6 -6 -32 -17 -58z m277
-142 l132 -114 -22 -37 c-52 -86 -54 -88 -74 -70 -11 9 -84 69 -164 134 -80
65 -151 123 -158 130 -11 10 -8 25 20 82 l33 70 50 -41 c28 -23 110 -92 183
-154z m-651 63 c-2 -22 0 -50 4 -62 5 -13 4 -25 -1 -28 -5 -3 -12 6 -16 20 -5
21 -11 24 -28 19 -11 -3 -25 -10 -30 -15 -13 -12 -47 -11 -66 1 -11 8 -9 9 10
5 35 -7 102 33 107 64 4 31 -42 82 -66 73 -14 -5 -14 -3 -3 11 13 15 17 14 54
-16 36 -29 39 -35 35 -72z m-41 33 c5 -8 0 -9 -17 -4 -31 10 -50 11 -71 1 -10
-4 -18 -3 -18 2 0 6 15 15 33 20 32 10 60 3 73 -19z m-176 -8 c42 0 51 -3 42
-12 -19 -19 -14 -31 13 -26 17 4 25 1 25 -8 0 -8 -3 -14 -7 -14 -9 0 -176 33
-181 36 -1 0 1 9 4 18 5 12 13 16 28 12 11 -3 46 -6 76 -6z m-123 -6 c-3 -3
-12 -4 -19 -1 -8 3 -5 6 6 6 11 1 17 -2 13 -5z m298 -16 c6 -6 -1 -7 -20 -2
-16 3 -34 11 -40 16 -6 6 1 7 20 2 17 -3 35 -11 40 -16z m-27 -16 c9 -6 5 -12
-13 -20 -34 -16 -35 -15 -35 8 0 21 24 27 48 12z m52 -86 c0 -5 -69 -46 -78
-46 -11 0 12 18 43 34 33 17 35 18 35 12z m795 -140 c-37 -48 -42 -46 -9 4 15
22 29 38 31 36 3 -3 -7 -21 -22 -40z m70 -38 c35 -76 90 -221 115 -308 11 -41
26 -83 31 -93 7 -13 5 -19 -7 -24 -15 -5 -195 4 -202 11 -1 2 -11 59 -22 127
-10 69 -23 144 -29 168 -9 42 -8 47 32 107 23 35 45 64 49 64 5 0 19 -24 33
-52z m-112 -23 c-3 -9 -8 -14 -10 -11 -3 3 -2 9 2 15 9 16 15 13 8 -4z m211
-419 c59 0 73 -2 55 -9 -49 -18 -239 -7 -239 14 0 6 20 7 53 2 28 -4 88 -8
131 -7z m109 -88 c10 -29 25 -97 35 -150 20 -121 19 -123 -96 -140 -84 -12
-201 -3 -264 21 -27 10 -28 13 -28 78 0 73 21 177 44 221 l14 28 139 -2 138
-2 18 -54z"/>
<path d="M3500 4554 l0 -106 -26 31 c-14 17 -30 31 -36 31 -5 0 7 -19 26 -42
l36 -42 0 -167 c0 -166 0 -168 -22 -172 -13 -2 153 -4 367 -4 215 0 366 2 337
4 l-52 4 2 226 3 226 63 35 c76 41 76 55 0 16 -44 -23 -63 -27 -115 -25 l-63
3 0 -49 c-1 -38 -7 -55 -30 -82 -28 -33 -33 -35 -85 -32 l-55 2 0 -65 c0 -56
-3 -67 -22 -81 -23 -15 -23 -15 -26 40 l-3 55 -59 0 -59 0 -3 -61 -3 -60 -35
23 -35 24 -3 187 -2 187 -50 0 -50 0 0 -106z m90 -70 c0 -100 -4 -163 -9 -159
-6 3 -24 30 -40 59 -29 50 -31 59 -31 160 l0 106 40 0 40 0 0 -166z m530 72
c0 -2 -20 -20 -45 -40 l-45 -37 0 40 0 41 45 0 c25 0 45 -2 45 -4z m-2 -279
l-3 -182 -42 -3 -43 -3 0 188 1 188 37 28 37 28 8 -31 c4 -18 7 -114 5 -213z
m-98 -7 l0 -180 -30 0 -30 0 0 146 c0 143 0 145 28 180 15 18 28 34 30 34 1 0
2 -81 2 -180z m-430 -85 l0 -95 -40 0 -40 0 0 158 0 157 40 -63 c39 -62 40
-64 40 -157z m350 203 c0 -7 -18 -33 -40 -58 l-39 -45 -1 58 0 57 40 0 c25 0
40 -5 40 -12z m0 -168 l0 -130 -40 0 -40 0 0 86 c0 84 1 86 37 130 21 24 39
44 40 44 2 0 3 -58 3 -130z m-160 71 c0 -44 -2 -49 -26 -55 -49 -13 -64 0 -64
55 l0 49 45 0 45 0 0 -49z m-111 -61 c7 0 11 -26 11 -70 l0 -70 -40 0 -40 0 0
91 0 90 29 -20 c16 -12 34 -21 40 -21z m181 -55 c0 -84 0 -85 -25 -85 -24 0
-25 2 -25 73 0 67 2 75 23 85 12 6 23 11 25 11 1 1 2 -37 2 -84z m-70 -15 l0
-70 -45 0 -45 0 0 64 0 65 43 4 c23 2 43 4 45 5 1 1 2 -29 2 -68z"/>
<path d="M2678 4212 c-37 -42 -75 -87 -83 -99 -9 -13 -20 -23 -24 -23 -10 0
-42 126 -36 143 2 6 -2 21 -11 32 -15 20 -16 20 -37 -7 -24 -29 -34 -34 -172
-83 -49 -18 -120 -44 -157 -58 -36 -14 -69 -23 -72 -20 -3 4 -14 -1 -23 -9
-10 -8 -26 -18 -37 -22 -14 -5 -17 -13 -13 -35 3 -16 1 -45 -4 -66 -14 -51 -3
-57 12 -6 7 23 17 41 24 41 15 0 75 -62 75 -78 0 -22 -89 -284 -102 -299 -9
-11 -26 -14 -60 -11 -27 3 -51 8 -55 11 -3 4 8 44 25 89 17 45 30 83 28 85 -2
2 -18 -33 -36 -77 -18 -45 -39 -87 -46 -94 -11 -11 -2 -16 46 -26 32 -7 66
-10 74 -7 8 3 22 0 33 -8 17 -13 16 -14 -12 -25 -16 -6 -40 -9 -52 -7 -13 2
-23 0 -23 -5 0 -5 20 -8 45 -7 48 3 68 -7 45 -21 -17 -11 -107 -13 -163 -4
-46 8 -44 27 4 35 22 4 26 7 11 8 -13 0 -26 10 -32 24 -9 22 -9 22 -9 1 -1
-12 -8 -27 -16 -34 -8 -7 -15 -19 -15 -27 0 -8 -12 -40 -26 -71 -39 -85 -61
-178 -48 -200 16 -24 96 -34 246 -30 l127 4 3 -36 c2 -24 9 -36 21 -38 16 -3
17 9 17 152 0 116 3 156 12 156 31 0 296 -22 316 -26 22 -4 22 -7 22 -154 l0
-150 28 0 c58 1 62 13 62 174 l0 147 43 18 42 18 3 -74 c3 -70 4 -73 27 -73
25 0 25 2 25 83 l0 82 152 43 c83 24 157 46 165 49 10 4 13 -20 13 -127 0
-131 0 -131 23 -128 22 3 22 6 25 161 2 143 1 158 -15 165 -10 4 -73 7 -140 7
-81 0 -117 3 -106 9 16 8 15 10 -2 17 -11 4 -38 8 -60 8 -52 2 -86 11 -79 22
7 12 91 11 115 -1 15 -8 19 -7 19 4 0 18 -61 42 -133 51 -63 7 -77 23 -77 85
0 31 19 80 30 80 4 0 10 13 13 28 6 31 66 124 83 129 11 4 86 -88 95 -116 4
-11 24 -14 85 -12 43 1 81 7 82 12 2 5 26 9 53 9 42 0 49 3 49 20 0 17 -7 20
-41 20 -32 0 -42 4 -46 19 -3 14 -21 22 -66 31 -34 6 -68 17 -76 23 -8 7 -34
44 -59 82 -40 64 -67 96 -81 95 -3 -1 -36 -35 -73 -78z m-170 11 c-9 -10 -33
-51 -53 -90 -21 -40 -41 -73 -46 -73 -15 0 -10 14 27 76 20 32 43 74 51 93 10
25 17 31 25 23 9 -9 7 -16 -4 -29z m254 -23 c0 -29 -6 -57 -12 -64 -10 -9 -11
-2 -6 29 3 22 6 53 6 69 0 16 3 27 6 24 3 -3 5 -29 6 -58z m-30 -17 c-4 -60
-29 -126 -68 -181 -4 -6 -83 53 -84 62 0 11 145 186 155 186 1 0 -1 -30 -3
-67z m138 -68 c16 -19 16 -22 1 -57 l-17 -36 -40 52 c-39 50 -41 55 -36 110
l5 57 35 -53 c19 -29 43 -62 52 -73z m-436 48 c-47 -82 -51 -86 -131 -113 -43
-15 -91 -32 -107 -39 -16 -6 -30 -10 -31 -9 -1 2 -14 20 -29 40 l-27 37 21 11
c12 7 77 31 144 55 66 24 132 48 146 53 42 18 43 14 14 -35z m131 -133 c10
-36 24 -85 31 -110 8 -25 15 -63 17 -85 2 -33 -2 -41 -23 -52 -30 -15 -34 -9
-80 112 -17 44 -40 101 -51 126 l-21 46 27 54 c44 87 47 88 66 28 9 -30 24
-83 34 -119z m-409 -47 c-3 -3 -15 2 -26 12 -26 23 -25 15 2 -32 22 -37 21
-36 -45 22 -72 64 -82 81 -42 71 20 -5 25 -3 25 11 0 13 14 4 46 -30 26 -27
43 -51 40 -54z m812 91 c29 -6 29 -7 19 -40 -10 -32 -13 -34 -52 -34 l-42 0
10 40 c12 42 15 44 65 34z m-80 -35 c-6 -16 -12 -28 -14 -26 -5 5 13 57 20 57
3 0 0 -14 -6 -31z m-469 5 c5 3 17 -11 26 -31 14 -29 16 -43 7 -63 -6 -14 -24
-61 -41 -105 -47 -119 -84 -197 -103 -217 -10 -10 -18 -29 -18 -43 0 -26 -10
-30 -126 -56 l-53 -12 -3 -66 -3 -66 -23 71 c-13 38 -24 81 -24 95 -1 13 -8
31 -15 40 -11 13 -10 23 6 60 10 24 34 92 52 151 19 61 39 108 47 108 6 0 12
9 12 21 0 39 20 57 87 82 110 40 127 44 146 35 9 -5 21 -7 26 -4z m592 -20
c-5 -16 -10 -21 -10 -12 -1 18 10 51 15 45 2 -1 -1 -16 -5 -33z m-364 -60 c-3
-3 -20 7 -37 24 -16 17 -30 36 -30 44 0 7 17 -4 37 -24 20 -21 34 -40 30 -44z
m416 59 c-7 -2 -19 -2 -25 0 -7 3 -2 5 12 5 14 0 19 -2 13 -5z m-438 -93 c-9
-14 -25 5 -25 30 0 12 3 12 16 -2 9 -9 13 -21 9 -28z m-91 -132 c23 -49 26
-64 19 -100 -8 -39 -12 -43 -44 -48 -19 -4 -65 -4 -101 -2 -66 4 -67 5 -53 26
8 11 30 62 49 113 19 51 42 107 52 124 l16 33 18 -45 c9 -24 29 -70 44 -101z
m211 -38 c5 -9 -27 -14 -72 -13 -7 1 -13 -3 -13 -8 0 -16 45 -37 95 -45 43 -6
46 -9 25 -15 -39 -11 -112 -9 -150 5 -44 16 -54 56 -18 74 29 14 125 15 133 2z
m-132 -87 l32 -16 -34 -9 c-42 -11 -54 0 -45 38 4 16 9 23 12 16 2 -7 18 -20
35 -29z m447 -16 c-3 -3 -119 -39 -259 -81 -279 -83 -293 -85 -535 -67 l-88 6
238 64 c132 36 240 67 242 70 1 4 93 8 205 10 111 2 200 1 197 -2z m28 -154
l-2 -148 -3 133 c-2 72 -5 132 -7 132 -12 0 -393 -113 -443 -132 l-63 -23 -3
-155 -3 -155 -2 167 -2 167 38 10 c29 8 478 146 490 150 1 1 1 -65 0 -146z
m-583 116 c-36 -12 -97 -12 -145 0 -27 7 -11 9 70 9 81 0 98 -2 75 -9z m-125
-19 c34 -1 9 -16 -42 -25 -34 -6 -36 -5 -31 15 4 16 11 20 27 16 11 -3 32 -6
46 -6z m-303 -171 c13 -35 25 -89 26 -123 2 -60 2 -60 -28 -67 -83 -18 -304
-4 -329 21 -11 11 12 93 50 181 l25 55 116 -2 116 -2 24 -63z m346 55 l117 -6
0 -164 c0 -103 -4 -164 -10 -164 -6 0 -10 57 -10 150 l0 150 -27 1 c-16 0 -98
6 -183 13 -85 7 -158 11 -162 9 -5 -2 -8 -74 -8 -159 0 -101 -3 -153 -10 -149
-6 4 -10 72 -10 171 l0 165 93 -5 c50 -3 145 -9 210 -12z"/>
<path d="M5457 2439 c-46 -11 -97 -36 -97 -49 0 -5 19 0 43 10 23 10 67 22 97
25 l55 7 -33 -21 c-18 -12 -43 -21 -56 -21 -28 0 -87 -19 -101 -33 -7 -6 0 -7
20 -3 17 3 44 9 62 12 l31 6 6 -63 c3 -35 8 -117 11 -181 l6 -118 -81 0 c-52
0 -79 -4 -75 -10 3 -5 26 -10 51 -10 l44 0 0 -50 c0 -90 31 -187 95 -300 8
-14 15 -33 15 -42 0 -10 16 -26 38 -37 20 -11 51 -29 67 -41 l30 -20 -40 5
c-27 5 -84 -4 -180 -25 -126 -29 -345 -52 -345 -37 0 3 18 55 40 116 21 61 36
112 32 114 -4 3 -25 10 -47 17 -22 7 -97 34 -167 61 -74 28 -148 50 -175 52
l-47 2 -34 -87 c-32 -79 -37 -86 -56 -78 -11 5 -41 13 -66 20 -25 6 -56 19
-69 29 l-24 18 57 23 c52 22 56 26 56 57 0 18 -4 33 -10 33 -5 0 -43 21 -84
46 -83 50 -74 34 -117 209 -12 50 -25 94 -29 98 -6 6 -385 -89 -400 -100 -2
-2 13 -68 33 -147 20 -79 37 -152 37 -161 0 -10 7 -27 17 -37 15 -17 14 -18
-25 -18 -22 0 -87 -11 -144 -25 -57 -14 -123 -25 -148 -25 -103 0 -220 31
-274 72 -18 14 -16 17 37 49 30 19 57 43 60 54 3 11 29 77 58 147 29 70 50
130 47 133 -2 3 -25 -4 -49 -14 -25 -11 -64 -23 -87 -27 -34 -5 -43 -11 -49
-32 -3 -14 -21 -62 -39 -107 l-32 -80 -49 -3 c-26 -2 -73 -12 -103 -23 -42
-16 -76 -21 -142 -20 -111 2 -141 -11 -234 -99 -52 -49 -83 -71 -109 -76 -63
-11 -114 24 -131 89 -6 26 -5 26 63 29 65 3 68 4 71 29 2 20 -9 40 -46 80
l-50 54 -1 140 c-1 77 -5 143 -10 148 -4 4 -95 6 -202 5 l-194 -3 -7 -158 c-5
-108 -11 -165 -21 -180 -18 -27 -142 -57 -197 -47 -22 4 -43 4 -45 -1 -10 -16
87 -22 141 -9 58 14 74 10 55 -14 -7 -8 -10 -24 -6 -36 6 -18 14 -20 96 -20
49 0 89 -3 89 -6 0 -3 -11 -20 -24 -37 -13 -18 -43 -66 -66 -107 -23 -41 -62
-103 -86 -137 l-45 -63 -53 0 c-29 0 -81 3 -115 6 l-62 7 28 18 c28 19 28 19
25 116 -1 54 -5 148 -8 209 l-6 112 -42 -5 c-156 -16 -275 -54 -361 -113 -49
-34 -95 -88 -95 -113 0 -37 -10 -44 -53 -37 -60 9 -103 35 -137 82 -32 44 -37
66 -17 73 6 2 62 11 122 20 159 22 165 24 165 45 0 17 10 20 93 23 l92 3 -91
2 c-67 1 -93 6 -97 16 -3 7 -9 92 -13 189 -7 172 -7 175 -31 186 -33 15 -93
13 -188 -5 -44 -9 -105 -19 -135 -24 -30 -4 -68 -13 -85 -19 -29 -10 -28 -11
10 -5 22 3 51 8 65 11 l25 5 -24 -17 c-51 -38 -61 -112 -45 -347 l6 -88 -76 0
-76 0 0 83 c0 45 -3 113 -7 151 -6 68 -6 68 16 61 13 -4 43 -4 67 0 36 5 44
10 44 27 0 20 -4 21 -67 15 -37 -4 -70 -12 -75 -19 -5 -7 -6 -33 -3 -57 3 -24
5 -98 5 -163 l0 -120 105 4 106 3 -8 -40 c-4 -22 -8 -79 -8 -126 0 -78 2 -89
28 -122 31 -41 152 -119 330 -211 152 -79 184 -84 385 -63 396 43 485 44 777
12 72 -8 133 -15 137 -15 3 0 18 -20 32 -44 48 -82 108 -118 271 -162 108 -29
243 -32 326 -8 30 9 110 43 179 76 193 92 227 97 340 52 53 -21 202 -23 457
-7 131 9 169 15 196 31 l34 19 42 -28 c49 -34 45 -35 168 53 l82 60 48 -19
c66 -25 208 -25 282 1 29 10 88 42 130 70 42 29 106 73 143 99 37 25 99 56
138 68 62 20 72 21 96 9 14 -8 40 -13 58 -12 28 3 329 82 368 97 19 8 33 38
20 43 -5 1 -44 25 -88 53 -43 27 -95 57 -115 67 -32 15 -38 23 -43 61 -3 24
-6 81 -6 126 0 45 -3 97 -6 114 -7 31 -7 31 -58 26 -178 -21 -353 -51 -376
-65 -14 -8 -16 -129 -5 -230 l5 -45 -36 73 c-31 62 -38 87 -43 163 -6 87 -6
89 16 89 29 0 92 56 108 95 9 22 10 69 4 188 -4 87 -11 162 -14 167 -7 12 -66
11 -118 -1z m108 -39 c3 -5 -8 -16 -24 -25 -22 -11 -31 -24 -34 -47 -3 -30 -4
-30 -5 7 -2 34 2 43 26 57 32 21 29 20 37 8z m8 -142 c6 -88 4 -105 -11 -121
-16 -19 -17 -17 -23 39 -16 139 -11 179 22 183 3 1 9 -45 12 -101z m-4042
-308 l4 -145 -50 -7 c-28 -4 -110 -17 -183 -29 -73 -12 -134 -20 -137 -18 -8
9 -20 290 -13 331 10 57 50 94 115 104 26 4 93 12 148 18 l100 11 6 -60 c4
-33 8 -125 10 -205z m3986 173 c-2 -21 -4 -6 -4 32 0 39 2 55 4 38 2 -18 2
-50 0 -70z m-2845 -67 l3 -133 -119 -7 c-66 -3 -153 -6 -194 -6 l-75 0 7 38
c3 20 6 83 6 140 l0 102 184 0 185 0 3 -134z m1628 76 c-8 -3 -73 -22 -145
-42 l-130 -35 2 -50 2 -50 -14 50 c-8 27 -12 51 -10 53 6 6 279 80 295 80 13
0 13 0 0 -6z m64 -77 c8 -39 18 -79 21 -91 6 -18 -5 -25 -89 -58 -53 -21 -123
-46 -156 -56 l-59 -18 -15 72 c-31 148 -33 133 16 146 91 24 253 71 257 76 7
7 9 1 25 -71z m13 53 c-3 -8 -6 -5 -6 6 -1 11 2 17 5 13 3 -3 4 -12 1 -19z
m1178 -35 c-16 -20 -30 -32 -32 -26 -4 11 48 75 55 68 3 -2 -8 -21 -23 -42z
m-1136 -128 c-2 -20 -38 101 -37 125 0 14 8 -6 19 -45 10 -38 18 -74 18 -80z
m-782 103 c-97 -234 -88 -219 -142 -253 -27 -17 -58 -35 -68 -38 -22 -8 -22
-8 43 163 l48 125 54 17 c79 24 81 24 65 -14z m-2574 5 c-7 -2 -21 -2 -30 0
-10 3 -4 5 12 5 17 0 24 -2 18 -5z m4891 -79 c3 -9 5 -59 4 -112 l-1 -97 -6
97 c-3 53 -10 100 -14 104 -9 9 -363 -38 -374 -50 -8 -7 10 -263 19 -272 4 -3
71 8 150 26 214 47 218 49 228 73 8 20 9 19 9 -9 l1 -31 -107 -26 c-141 -34
-292 -62 -298 -55 -3 3 -8 73 -12 155 l-6 150 89 17 c70 14 229 38 300 45 7 0
15 -6 18 -15z m-1917 -46 c-3 -8 -6 -5 -6 6 -1 11 2 17 5 13 3 -3 4 -12 1 -19z
m1886 15 c3 -5 6 -53 8 -108 l4 -99 -169 -38 c-93 -21 -170 -37 -172 -35 -1 1
-4 56 -6 122 l-3 119 140 22 c157 24 192 27 198 17z m-1494 -26 c-3 -3 -213
-78 -345 -124 -7 -2 -17 10 -23 28 -15 43 -13 50 4 17 l15 -27 53 15 c28 9 97
33 152 54 55 21 109 40 120 42 20 4 32 1 24 -5z m-1709 -62 c24 -24 42 -46 39
-49 -2 -2 -123 -7 -267 -11 l-264 -7 34 50 33 51 125 3 c69 2 154 5 190 6 66
2 66 2 110 -43z m1796 -7 c41 -24 72 -47 71 -52 -2 -5 -36 -18 -77 -31 -41
-12 -121 -41 -178 -63 -56 -23 -109 -42 -117 -42 -16 0 -133 105 -125 112 9 8
324 117 339 117 8 1 47 -18 87 -41z m-1112 -47 c-4 -14 -9 -29 -13 -33 -3 -4
-56 -4 -116 -1 l-110 6 70 25 c76 26 143 41 162 34 8 -3 11 -14 7 -31z m-1584
-15 c-47 -24 -107 -46 -133 -49 -27 -4 -70 -16 -95 -27 l-47 -20 25 22 c37 31
136 75 220 97 115 30 123 24 30 -23z m148 -166 l-1 -115 -8 134 c-5 74 -13
139 -19 145 -6 6 -36 -3 -86 -27 l-77 -36 2 -88 c1 -91 12 -243 16 -243 2 0
41 20 88 45 68 36 86 42 90 31 6 -15 -53 -56 -149 -104 l-41 -21 -7 77 c-3 42
-9 131 -12 197 l-7 120 99 48 99 48 7 -48 c3 -27 6 -100 6 -163z m1155 157
c-41 -20 -54 -39 -34 -52 14 -8 -20 -61 -83 -131 -81 -90 -240 -194 -295 -194
-23 0 -77 57 -96 102 -8 21 -20 73 -25 115 -6 43 -13 90 -16 106 -5 24 -3 27
23 27 24 0 31 -7 47 -45 25 -61 57 -85 115 -85 54 0 74 12 157 92 69 67 114
87 194 87 l55 0 -42 -22z m1842 -42 c61 -23 131 -50 158 -60 26 -10 47 -20 47
-22 0 -2 -28 -84 -62 -181 -37 -104 -64 -168 -66 -154 -2 12 -8 22 -13 22 -14
0 -352 149 -362 159 -5 5 -1 23 7 42 l15 34 -5 -30 -5 -30 178 -77 c98 -43
181 -78 185 -78 8 0 46 89 79 187 26 78 27 84 11 102 -9 10 -48 29 -87 41 -38
13 -101 35 -140 50 -113 44 -122 45 -139 13 -18 -33 -21 -25 -4 12 11 24 15
26 52 19 23 -3 91 -25 151 -49z m-2262 38 c-40 -2 -106 -2 -145 0 -40 1 -8 3
72 3 80 0 112 -2 73 -3z m-769 -85 c3 -46 7 -109 9 -141 l4 -58 -67 -34 -67
-34 -7 61 c-3 34 -6 98 -6 144 l0 84 58 29 c31 17 60 30 64 31 3 0 9 -37 12
-82z m449 75 c-29 -2 -78 -2 -110 0 -32 2 -8 3 52 3 61 0 87 -1 58 -3z m2186
-7 c-4 -3 -273 -116 -326 -137 -16 -6 -23 -5 -23 4 0 14 297 134 339 136 8 1
12 -1 10 -3z m355 -45 c44 -17 102 -37 130 -46 82 -24 81 -20 43 -126 -45
-122 -58 -149 -71 -149 -14 0 -308 128 -319 139 -8 8 17 85 56 173 29 65 19
65 161 9z m-2369 29 c3 -5 10 -49 16 -97 12 -110 32 -165 76 -214 l35 -38 -29
-8 c-37 -10 -309 -10 -395 0 l-68 9 49 71 c26 40 69 109 95 153 70 123 83 134
155 134 33 0 62 -4 66 -10z m790 0 c27 -6 4 -7 -70 -3 -60 3 -112 7 -114 9 -9
8 145 3 184 -6z m-2086 -45 c41 -77 113 -125 187 -125 20 0 22 -6 26 -81 3
-74 6 -83 31 -105 16 -14 41 -24 58 -24 29 0 39 -13 19 -25 -58 -36 149 -62
251 -32 36 11 49 11 74 1 40 -17 128 -17 168 -1 18 8 46 26 63 40 l32 27 208
-6 c133 -4 229 -3 265 4 51 10 60 9 104 -14 27 -13 56 -24 64 -24 14 0 16 -13
16 -75 0 -88 19 -82 -190 -60 -176 19 -334 18 -550 -1 -283 -25 -387 -28 -431
-14 -21 7 -97 44 -169 83 -308 165 -331 195 -304 377 12 85 15 91 49 99 3 0
16 -19 29 -44z m2230 14 c98 -61 264 -77 414 -38 109 28 194 32 206 11 7 -12
1 -26 -22 -53 -18 -20 -44 -70 -60 -110 -15 -41 -34 -82 -42 -93 -13 -17 -16
-17 -77 12 -35 16 -130 53 -213 81 -161 56 -240 97 -286 149 -36 40 -36 45 -1
59 15 6 28 11 29 12 1 1 24 -13 52 -30z m711 -86 c0 -7 -19 9 -43 35 -69 76
-76 91 -14 32 31 -30 57 -60 57 -67z m-2456 -20 c4 -65 9 -149 13 -187 l6 -68
-32 7 c-17 4 -70 12 -118 19 -113 17 -123 29 -123 136 0 94 9 121 49 150 40
28 127 59 167 60 l31 0 7 -117z m1436 84 c-30 -18 -79 -51 -109 -72 l-54 -39
47 63 c25 35 46 67 46 72 0 5 28 9 63 9 l62 0 -55 -33z m217 -26 c53 -60 127
-100 295 -157 73 -25 164 -59 201 -76 l68 -31 -28 -29 c-63 -66 -218 -114
-300 -93 l-28 7 26 22 c38 33 43 65 13 77 -14 5 -35 9 -47 9 -43 0 -48 12 -30
68 9 28 14 54 11 57 -3 3 -109 29 -237 58 l-231 53 75 46 c68 41 80 45 123 40
41 -4 53 -11 89 -51z m1131 15 c20 -14 60 -30 87 -37 28 -6 53 -15 58 -19 10
-9 -33 -111 -45 -104 -5 3 -15 0 -23 -6 -11 -10 -21 -7 -45 12 -74 56 -100 81
-119 114 l-21 35 33 14 c17 8 33 14 35 15 1 0 19 -11 40 -24z m1495 -17 c23
-12 71 -40 106 -62 l64 -40 -94 -19 c-52 -11 -132 -32 -179 -48 l-85 -28 -50
32 c-27 18 -76 48 -107 67 -32 18 -58 36 -58 39 0 4 42 14 93 24 50 9 124 25
162 35 91 25 98 25 148 0z m-1585 -44 c17 -25 52 -60 77 -77 25 -18 45 -37 45
-43 0 -6 -52 -40 -115 -76 -114 -64 -130 -81 -107 -115 4 -6 48 -35 97 -64
l90 -52 -95 5 c-63 2 -115 11 -154 25 -59 21 -286 166 -286 182 0 5 9 24 19
42 11 18 29 59 41 92 12 32 35 72 50 89 l28 31 36 -32 c20 -18 43 -32 50 -32
8 0 49 15 93 34 43 19 83 35 89 35 5 1 24 -19 42 -44z m-1341 -17 c-3 -7 -27
-62 -52 -123 -26 -60 -51 -115 -57 -122 -13 -16 -117 -28 -130 -15 -7 7 0 28
21 69 41 75 66 103 143 157 65 47 84 55 75 34z m241 -44 c114 -26 210 -49 215
-53 12 -11 -110 -327 -125 -323 -7 2 -105 24 -218 49 -113 25 -209 49 -214 54
-11 10 115 319 130 319 3 0 98 -21 212 -46z m2453 -85 c13 -9 22 -19 19 -22
-5 -5 -121 70 -139 89 -7 8 86 -45 120 -67z m344 45 c-27 -8 -98 -28 -158 -45
-59 -17 -113 -29 -120 -26 -15 5 57 29 183 61 101 27 183 35 95 10z m-1320
-106 c102 -45 184 -87 182 -93 -5 -13 -248 -184 -265 -184 -7 -1 -52 23 -100
53 -48 29 -114 67 -147 84 -33 17 -75 41 -93 55 l-33 25 123 70 c68 39 128 71
135 71 7 1 96 -36 198 -81z m908 67 c27 -11 20 -21 -25 -35 -65 -19 -124 -51
-223 -122 -174 -124 -221 -142 -358 -136 -51 2 -105 10 -122 17 l-29 12 29 24
c17 13 37 24 45 25 10 0 25 29 44 85 l29 85 46 -6 c52 -6 208 16 321 45 74 20
200 23 243 6z m-2847 -43 c-14 -22 -28 -52 -32 -66 -8 -31 -12 -32 -75 -5
l-50 22 56 22 c31 13 70 34 88 48 18 14 33 24 35 22 2 -2 -8 -21 -22 -43z
m-798 -52 c67 0 73 -2 61 -16 -19 -23 -82 -53 -127 -60 -52 -8 -118 12 -102
31 7 8 9 24 5 36 -7 21 -5 22 40 16 26 -4 81 -7 123 -7z m2208 -180 c41 -13
111 -24 173 -27 82 -5 113 -11 144 -29 l39 -22 -23 -13 c-26 -14 -323 -38
-479 -39 -76 0 -113 5 -183 27 -81 24 -94 26 -143 15 -30 -6 -121 -43 -203
-82 -209 -99 -289 -110 -467 -65 -130 33 -219 78 -261 133 -18 24 -33 48 -33
53 0 5 30 9 66 9 77 0 192 17 246 36 34 12 50 10 156 -13 73 -16 129 -23 146
-19 15 4 50 28 77 53 l49 46 88 -2 c109 -3 175 20 247 82 l49 44 122 -83 c85
-57 143 -89 190 -104z m-659 166 c1 -1 -31 -36 -73 -77 l-75 -74 20 55 c41
117 36 111 83 104 24 -4 44 -8 45 -8z m-1729 -8 c-8 -24 -100 -47 -188 -47
-86 -1 -118 8 -106 28 10 15 46 14 121 -5 64 -16 64 -16 107 9 48 28 72 33 66
15z m1074 -62 l-4 -34 104 -24 103 -25 -41 -11 c-56 -16 -227 -33 -262 -26
-26 5 -31 11 -34 43 -1 20 -2 50 0 68 3 32 4 32 65 36 34 2 64 4 67 5 4 1 4
-13 2 -32z m1438 -13 c0 -2 -13 3 -30 12 -16 9 -30 20 -30 26 0 5 14 0 30 -13
17 -12 30 -23 30 -25z m609 -7 c-2 -2 -54 -39 -116 -84 -137 -99 -170 -118
-161 -92 5 16 273 197 277 187 1 -4 1 -10 0 -11z m-431 -88 c56 -33 102 -62
102 -65 0 -3 -19 6 -42 20 -24 13 -85 48 -135 76 -51 29 -93 54 -93 57 0 6 50
-20 168 -88z"/>
<path d="M1020 1935 c-10 -12 -9 -20 4 -40 17 -27 41 -25 49 4 10 40 -28 66
-53 36z m30 -21 c0 -8 -5 -12 -10 -9 -6 4 -8 11 -5 16 9 14 15 11 15 -7z"/>
</g>
</svg>
