<?xml version="1.0" encoding="UTF-8"?>
<!DOCTYPE svg PUBLIC "-//W3C//DTD SVG 1.1//EN" "http://www.w3.org/Graphics/SVG/1.1/DTD/svg11.dtd">
<svg xmlns="http://www.w3.org/2000/svg" version="1.1" width="995px" height="260px" style="shape-rendering:geometricPrecision; text-rendering:geometricPrecision; image-rendering:optimizeQuality; fill-rule:evenodd; clip-rule:evenodd" xmlns:xlink="http://www.w3.org/1999/xlink">
<g><path style="opacity:0.992" fill="#030303" d="M 359.5,34.5 C 368.5,34.5 377.5,34.5 386.5,34.5C 386.5,47.8333 386.5,61.1667 386.5,74.5C 399.167,74.5 411.833,74.5 424.5,74.5C 424.5,83.5 424.5,92.5 424.5,101.5C 411.833,101.5 399.167,101.5 386.5,101.5C 386.333,118.503 386.5,135.503 387,152.5C 387.16,156.287 387.826,159.954 389,163.5C 390.826,165.074 392.993,165.907 395.5,166C 405.828,166.5 416.161,166.666 426.5,166.5C 426.5,175.833 426.5,185.167 426.5,194.5C 413.454,194.877 400.454,194.377 387.5,193C 371.463,189.628 362.296,179.795 360,163.5C 359.5,142.836 359.333,122.169 359.5,101.5C 346.167,101.5 332.833,101.5 319.5,101.5C 319.5,92.5 319.5,83.5 319.5,74.5C 332.833,74.5 346.167,74.5 359.5,74.5C 359.5,61.1667 359.5,47.8333 359.5,34.5 Z"/></g>
<g><path style="opacity:0.992" fill="#030303" d="M 486.5,34.5 C 495.5,34.5 504.5,34.5 513.5,34.5C 513.5,47.8333 513.5,61.1667 513.5,74.5C 526.167,74.5 538.833,74.5 551.5,74.5C 551.5,83.5 551.5,92.5 551.5,101.5C 538.833,101.5 526.167,101.5 513.5,101.5C 513.333,118.503 513.5,135.503 514,152.5C 514.16,156.287 514.826,159.954 516,163.5C 517.826,165.074 519.993,165.907 522.5,166C 532.828,166.5 543.161,166.666 553.5,166.5C 553.5,175.833 553.5,185.167 553.5,194.5C 540.454,194.877 527.454,194.377 514.5,193C 498.463,189.628 489.296,179.795 487,163.5C 486.5,142.836 486.333,122.169 486.5,101.5C 473.833,101.5 461.167,101.5 448.5,101.5C 448.5,92.5 448.5,83.5 448.5,74.5C 461.167,74.5 473.833,74.5 486.5,74.5C 486.5,61.1667 486.5,47.8333 486.5,34.5 Z"/></g>
<g><path style="opacity:0.989" fill="#35bbcb" d="M 737.5,33.5 C 772.882,33.0265 808.215,33.5265 843.5,35C 859.813,40.3171 869.313,51.4838 872,68.5C 872.87,78.8845 872.536,89.2179 871,99.5C 865.793,115.371 854.96,124.871 838.5,128C 812.105,128.027 785.771,128.693 759.5,130C 756.819,132.194 755.319,135.027 755,138.5C 754.5,147.16 754.334,155.827 754.5,164.5C 793.833,164.5 833.167,164.5 872.5,164.5C 872.5,174.167 872.5,183.833 872.5,193.5C 823.167,193.5 773.833,193.5 724.5,193.5C 724.071,172.46 724.571,151.46 726,130.5C 730.07,112.429 741.237,101.929 759.5,99C 784.833,98.6667 810.167,98.3333 835.5,98C 839.704,96.7724 841.87,93.9391 842,89.5C 843.088,81.6403 842.421,73.9737 840,66.5C 839.097,65.2986 837.931,64.4652 836.5,64C 803.833,63.6667 771.167,63.3333 738.5,63C 737.514,53.2496 737.181,43.4163 737.5,33.5 Z"/></g>
<g><path style="opacity:0.991" fill="#39bccc" d="M 891.5,33.5 C 910.5,33.5 929.5,33.5 948.5,33.5C 948.5,86.8333 948.5,140.167 948.5,193.5C 938.5,193.5 928.5,193.5 918.5,193.5C 918.5,150.167 918.5,106.833 918.5,63.5C 909.582,63.8172 900.749,63.4839 892,62.5C 891.5,52.8391 891.334,43.1724 891.5,33.5 Z"/></g>
<g><path style="opacity:0.993" fill="#070707" d="M 12.5,72.5 C 22.1667,72.5 31.8333,72.5 41.5,72.5C 41.3334,100.169 41.5,127.835 42,155.5C 42.9575,160.79 46.1242,163.624 51.5,164C 69.4969,164.5 87.4969,164.667 105.5,164.5C 105.5,174.167 105.5,183.833 105.5,193.5C 85.1639,193.667 64.8306,193.5 44.5,193C 24.7388,188.239 13.9055,175.739 12,155.5C 11.1761,127.761 11.3427,100.095 12.5,72.5 Z"/></g>
<g><path style="opacity:0.999" fill="#070707" d="M 116.5,73.5 C 126.167,73.5 135.833,73.5 145.5,73.5C 145.5,119.167 145.5,164.833 145.5,210.5C 142.691,231.475 130.691,243.308 109.5,246C 90.8333,246.667 72.1667,246.667 53.5,246C 52.5144,236.25 52.181,226.416 52.5,216.5C 71.1696,216.667 89.8363,216.5 108.5,216C 111.196,215.31 113.363,213.81 115,211.5C 116.485,165.56 116.985,119.56 116.5,73.5 Z"/></g>
<g><path style="opacity:0.376" fill="#808080" d="M 116.5,73.5 C 126.319,72.506 136.319,72.1726 146.5,72.5C 146.832,118.67 146.499,164.67 145.5,210.5C 145.5,164.833 145.5,119.167 145.5,73.5C 135.833,73.5 126.167,73.5 116.5,73.5 Z"/></g>
<g><path style="opacity:0.996" fill="#070707" d="M 206.5,72.5 C 229.539,72.064 252.539,72.564 275.5,74C 291.842,79.3422 301.342,90.5088 304,107.5C 304.667,125.167 304.667,142.833 304,160.5C 300.615,178.218 290.115,189.052 272.5,193C 249.167,193.667 225.833,193.667 202.5,193C 185.769,189.269 175.269,179.103 171,162.5C 170.047,141.782 170.38,121.115 172,100.5C 178.034,84.288 189.534,74.9547 206.5,72.5 Z M 207.5,102.5 C 227.503,102.333 247.503,102.5 267.5,103C 271.027,103.86 273.193,106.027 274,109.5C 274.97,126.258 274.637,142.925 273,159.5C 271.066,162.688 268.232,164.188 264.5,164C 246.167,164.667 227.833,164.667 209.5,164C 205.562,163.786 202.728,161.953 201,158.5C 200.333,141.833 200.333,125.167 201,108.5C 202.436,105.558 204.603,103.558 207.5,102.5 Z"/></g>
<g><path style="opacity:0.631" fill="#757575" d="M 667.5,73.5 C 644.833,73.5 622.167,73.5 599.5,73.5C 599.5,82.5 599.5,91.5 599.5,100.5C 621.673,100.169 643.673,100.503 665.5,101.5C 643.167,101.5 620.833,101.5 598.5,101.5C 598.5,91.8333 598.5,82.1667 598.5,72.5C 621.673,72.1692 644.673,72.5025 667.5,73.5 Z"/></g>
<g><path style="opacity:0.995" fill="#040404" d="M 667.5,73.5 C 685.964,75.4628 697.464,85.4628 702,103.5C 702.667,122.833 702.667,142.167 702,161.5C 698.369,177.798 688.536,188.298 672.5,193C 647.45,193.962 622.45,193.628 597.5,192C 574.241,182.315 565.741,165.148 572,140.5C 576.91,126.279 586.744,117.446 601.5,114C 621.831,113.5 642.164,113.333 662.5,113.5C 662.5,122.833 662.5,132.167 662.5,141.5C 644.164,141.333 625.83,141.5 607.5,142C 598.838,145.507 596.338,151.674 600,160.5C 601.952,162.894 604.452,164.394 607.5,165C 627.167,165.667 646.833,165.667 666.5,165C 670.77,163.73 673.27,160.896 674,156.5C 674.667,140.833 674.667,125.167 674,109.5C 672.613,105.279 669.779,102.612 665.5,101.5C 643.673,100.503 621.673,100.169 599.5,100.5C 599.5,91.5 599.5,82.5 599.5,73.5C 622.167,73.5 644.833,73.5 667.5,73.5 Z"/></g>
</svg>
